<?xml version="1.0" encoding="UTF-8"?> <svg xmlns="http://www.w3.org/2000/svg" id="Capa_1" viewBox="0 0 464.1 464.1"> <style>.st0{fill:#fff}</style> <g id="XMLID_29_"> <path id="XMLID_87_" class="st0" d="M183.5 347.8V361l35.9-7.4z"></path> <path id="XMLID_861_" class="st0" d="M227.5 334.6v-7.4l-29.2 2.7z"></path> <path id="XMLID_862_" class="st0" d="M183.5 381.1v4.1c0 12.1 9.8 22 22 22s22-9.8 22-22v-12.8c-45.7 9.4-42.2 8.8-44 8.7z"></path> <circle id="XMLID_875_" class="st0" cx="232.2" cy="38" r="38"></circle> <path id="XMLID_876_" class="st0" d="M222 222.3c4 11.8 17.4 14.3 23.2 11.4L233.4 199c-9.5 3.2-14.7 13.6-11.4 23.3z"></path> <path id="XMLID_877_" class="st0" d="M325.1 192.8l-.2-33.2-.1-28.4c-.1-23.8-19.6-43.1-43.3-43.1H183c-23.8 0-43.2 19.3-43.3 43.1l-.7 134.5c0 9.8 7.6 17.8 17.2 18.3v170.1c0 5.5 4.5 10 10 10s10-4.5 10-10c0-12.8.1-322.8.1-322.8.1-2.1 1.9-3.7 3.9-3.6s3.7 1.8 3.7 3.8l-.4 179.7c46.3-4.3 43-4 44-4v-38.8c0-2.7 2.2-4.9 4.9-4.9 2.6 0 4.8 2.1 4.8 4.8-.1 28.4-.2 173.8-.2 173.8 0 12.1 9.8 22 22 22 12.1 0 22-9.8 22-22V242.6l-29.3 10c-20.1 6.8-41.8-3.9-48.6-23.9-6.8-20 3.9-41.8 23.9-48.6 4.7-1.6 53.9-18.4 61.4-21l.1 16.7 13.3 38.6 11-3.8c7-2.4 12.3-9 12.3-17.8z"></path> </g> </svg> 